HIERARCHY
ROOT Hip
{
    OFFSET 0.0 0.0 0.0
    CHANNELS 6 Xposition Yposition Zposition Zrotation Xrotation Yrotation
    JOINT RightHip
    {
        OFFSET -0.1128663718700409 0.0 0.0
        CHANNELS 3 Zrotation Xrotation Yrotation
        JOINT RightKnee
        {
            OFFSET 0.0 0.0 -0.44123852252960205
            CHANNELS 3 Zrotation Xrotation Yrotation
            JOINT RightAnkle
            {
                OFFSET 0.0 0.0 -0.4431934356689453
                CHANNELS 3 Zrotation Xrotation Yrotation
                End Site
                {
                    OFFSET 0.0 -0.17727738618850708 0.0
                }
            }
        }
    }
    JOINT LeftHip
    {
        OFFSET 0.1128663718700409 0.0 0.0
        CHANNELS 3 Zrotation Xrotation Yrotation
        JOINT LeftKnee
        {
            OFFSET 0.0 0.0 -0.44123852252960205
            CHANNELS 3 Zrotation Xrotation Yrotation
            JOINT LeftAnkle
            {
                OFFSET 0.0 0.0 -0.4431934356689453
                CHANNELS 3 Zrotation Xrotation Yrotation
                End Site
                {
                    OFFSET 0.0 -0.17727738618850708 0.0
                }
            }
        }
    }
    JOINT Spine
    {
        OFFSET 0.0 0.0 0.07670905441045761
        CHANNELS 3 Zrotation Xrotation Yrotation
        JOINT Thorax
        {
            OFFSET 0.0 0.0 0.07670912891626358
            CHANNELS 3 Zrotation Xrotation Yrotation
            JOINT Neck
            {
                OFFSET 0.0 0.0 0.07670905441045761
                CHANNELS 3 Zrotation Xrotation Yrotation
                End Site
                {
                    OFFSET 0.0 0.0 0.030683621764183044
                }
            }
            JOINT LeftShoulder
            {
                OFFSET 0.34057456254959106 0.0 0.0
                CHANNELS 3 Zrotation Xrotation Yrotation
                JOINT LeftElbow
                {
                    OFFSET 0.2322695255279541 0.0 0.0
                    CHANNELS 3 Zrotation Xrotation Yrotation
                    JOINT LeftWrist
                    {
                        OFFSET 0.21240948140621185 0.0 0.0
                        CHANNELS 3 Zrotation Xrotation Yrotation
                        End Site
                        {
                            OFFSET 0.08496379107236862 0.0 0.0
                        }
                    }
                }
            }
            JOINT RightShoulder
            {
                OFFSET -0.34057456254959106 0.0 0.0
                CHANNELS 3 Zrotation Xrotation Yrotation
                JOINT RightElbow
                {
                    OFFSET -0.2322695255279541 0.0 0.0
                    CHANNELS 3 Zrotation Xrotation Yrotation
                    JOINT RightWrist
                    {
                        OFFSET -0.21240948140621185 0.0 0.0
                        CHANNELS 3 Zrotation Xrotation Yrotation
                        End Site
                        {
                            OFFSET -0.08496379107236862 0.0 0.0
                        }
                    }
                }
            }
        }
    }
}
MOTION
Frames: 9
Frame Time: 0.03333333333333333
-0.061649344861507416 0.06192581355571747 4.390252113342285 -113.17373066023697 69.26898608651686 114.74183395410822 -0.18765473748137804 -30.64776089363142 3.734670628778818 5.528934071100193 45.89685850586975 -15.696860309621023 0.0 0.0 0.0 -1.2198243837971918 -20.53502260844243 -11.958061324726419 -8.01440487250795 37.54000998559283 25.092487757671968 3.975693351829395e-16 -6.2617170291312985e-15 -1.5902773407317584e-15 1.1368841846545304e-06 -2.1483771285752557e-06 6.57192688982369e-07 175.6384732465669 -5.203520128951097e-06 -1.1241963484711602e-06 14.102468086027013 -5.681735425580394 1.1164428490894002e-06 -90.03442006602813 -3.9556719524987236 -91.42085247311488 -172.86863764373027 -2.2502111750230988e-07 2.394957964938394e-07 -1.5107634736951704e-14 -3.1805546814635164e-15 -1.5902773407317588e-15 -179.89934988601593 -10.570211120311438 -129.1559179114626 94.28787111199036 6.20448536904081e-07 3.2470703197316016e-06 0.0 0.0 -2.385416011097637e-15
-0.06653201580047607 0.07035045325756073 4.386610507965088 -107.51427923240348 67.03743179070743 109.60445962085143 -0.830905145252923 -29.42644459150351 2.963725763094298 6.090378008509785 47.68289690065054 -14.398177176797573 -1.5902773407317584e-15 1.9878466759146985e-16 -3.1805546814635168e-15 -1.1767727343474326 -17.000918932146412 -11.718595394539204 -6.575050434417374 35.381440813731516 23.935327279163076 -7.951386703658792e-16 1.987846675914698e-16 1.5902773407317584e-15 1.3608484991324454e-05 0.00029670636076300377 0.00011976028677465145 174.82137754934232 -1.684169948570079e-06 1.5314942179852965e-07 16.10433780048258 -5.355568455132254 6.084482633393726e-05 -90.07336841437986 -3.8508774224228914 -91.96480766372399 -172.97063293303046 -2.980132344004116e-06 2.6088782067931443e-06 7.553817368475852e-15 1.5902773407317588e-15 3.1805546814635168e-15 -177.5789826744985 -14.766100761950806 -132.92336914190707 92.10192699022737 5.0640597989202916e-06 2.3334845675457973e-06 0.0 -6.361109362927033e-15 0.0
-0.06886987388134003 0.07601011544466019 4.3926215171813965 -105.01044377252488 64.1532010479676 107.53695042368548 -1.5604931856040059 -29.52966297884999 1.3930055699424173 6.509852517346292 49.71209494880782 -12.65193746305789 3.1805546814635168e-15 -6.3611093629270335e-15 3.1805546814635168e-15 -1.2203084995717024 -14.589632818866734 -11.172671653343462 -5.582240185296552 34.075147109327915 22.20429939355218 1.5902773407317584e-15 5.9635400277440935e-15 -8.276074308844047e-32 1.555058364214513e-05 0.0002881535541883499 0.00013974486422755345 174.6188669136311 -4.186624599854182e-06 2.1673614034104367e-06 16.600727670761113 -4.978190659830811 7.933550147899132e-05 -90.14127509578445 -4.457508436269449 -92.06611725681776 -173.10857470822504 4.030237224828167e-06 -4.971768112935415e-07 0.0 0.0 1.5902773407317584e-15 -176.22303614392382 -20.660530313591778 -138.63765674562464 87.41688686321002 -1.2559069290074077e-06 -7.633782161901014e-07 4.770832022195274e-15 2.648343778830095e-31 6.361109362927033e-15
-0.07046180218458176 0.07647120952606201 4.4038519859313965 -103.3346506805677 60.538562662430564 106.39705442285732 -1.5117308333856914 -30.507919916792698 -0.02493402863517698 5.3610210987911575 52.307939125322754 -9.463908641769786 -1.590277340731758e-15 -6.758678698109972e-15 -9.379550883356588e-32 -1.1241371882139735 -13.562879768758867 -11.606515514157637 -6.654367717189781 35.07908389507643 22.310862753920237 2.3854160110976376e-15 -6.3611093629270335e-15 -1.5902773407317582e-15 1.0168422009327553e-05 0.0002818937790156943 0.00015176711144829257 175.39980264802463 -7.380732145516187e-06 -4.408838927861021e-06 19.797966711118146 -4.957288559270897 7.450777577159437e-05 -90.27689122150424 -5.762377043821783 -92.71604300444488 -173.11244538248567 4.828283267645407e-06 3.682501732567129e-06 0.0 1.5902773407317588e-15 0.0 -177.5903073316071 -27.625827985021456 -145.77766756996124 81.56856296637575 -2.600070840894701e-06 2.459566705706011e-06 3.531125038440127e-31 6.3611093629270335e-15 -6.3611093629270335e-15
-0.08092991262674332 0.08100715279579163 4.413727760314941 -102.15390688608174 58.42990703467084 104.7521636526215 -0.9434434123658028 -32.39156181855122 0.3108731166967923 5.889166340771891 57.01416045709099 -8.46202959068269 1.5902773407317584e-15 0.0 0.0 -1.1561798363103681 -15.59350498665378 -12.376328846338504 -10.042047513807255 40.8008134314877 24.794365625847686 1.1034765745125397e-32 3.9756933518293945e-16 -3.1805546814635156e-15 6.167656535917339e-06 0.0002720517103412269 0.00016850926315142297 177.58163975556843 -4.409717456488344e-06 -2.7579827602528903e-07 21.068388019362533 -5.709862367982813 7.218437140129118e-05 -90.31922461376818 -6.097762992098204 -92.68675666115539 -172.9874229543386 3.9208718945900795e-06 1.0737911002911387e-06 3.975693351829397e-15 0.0 0.0 178.77673765950792 -29.861011660919292 -152.01953369033407 73.16555702811495 3.4073667195766874e-06 5.641106772724953e-07 -1.5902773407317584e-15 -1.5902773407317584e-15 -1.5902773407317584e-15
-0.08284202963113785 0.08644185215234756 4.453763008117676 -104.68121610742124 58.50863032917085 105.57981911806297 -0.36271901882998864 -34.50673769106761 2.430703601151156 8.684011530622671 59.24286330397224 -11.791334704174846 -4.770832022195274e-15 0.0 0.0 -1.0066324922544512 -20.79486483093472 -12.069087208348382 -14.747752220873616 49.27775883858168 28.734235545153137 1.5902773407317584e-15 6.7586786981099735e-15 -9.379550883356588e-32 8.96176815404888e-06 0.00027763337864719384 0.00016763506064489673 179.4637004381611 2.926785017598609e-07 5.831211010649598e-07 18.975539931383427 -6.2131952960897 7.239851736532935e-05 -90.20308084143342 -4.650654775781709 -92.0741205614665 -172.70202989652276 7.563061976782432e-07 7.967172959190453e-07 7.156248033292912e-15 1.9862578341225716e-31 3.1805546814635164e-15 174.0137665025087 -22.505941721721655 -156.86573202531153 60.13030691865152 -2.355171205437522e-07 2.1651072116508104e-06 -5.29668755766019e-31 -6.3611093629270335e-15 -9.54166404439055e-15
-0.08126663416624069 0.08333409577608109 4.509232997894287 -112.47549411496847 59.49583557993035 112.1986559321877 -1.4053204870372693 -39.603912394325675 2.8722913180963654 10.883882575224572 58.76480383456412 -15.774356130662571 1.5902773407317584e-15 3.975693351829396e-16 -5.517382872562698e-33 -0.7355709307885022 -31.16496919457012 -13.35012705830307 -24.09674213925485 59.283781416642924 34.167600329641196 4.7708320221952736e-15 0.0 0.0 -1.5902773407317588e-15 -4.4139062980501586e-32 3.1805546814635176e-15 -179.26635337021838 -4.548831345077368e-07 -1.7790152895525656e-07 13.690024449206328 -6.907090095894517 -7.37885131295413e-08 -90.14337818085417 -3.208237889856502 -91.97283107641942 -172.46269091520404 -2.2011304427423567e-06 -8.69416790028123e-07 -5.5659706925611536e-15 -7.724336021587778e-32 1.5902773407317582e-15 172.4602898612242 -12.90992584370379 -154.12936444539403 52.96767952979254 2.5414787741267547e-06 3.598802151252034e-06 6.3611093629270335e-15 -6.3611093629270335e-15 3.531125038440127e-31
-0.08056215196847916 0.08326701819896698 4.533936023712158 -125.127884400575 57.644391186503576 123.93502160672753 -4.814543791139632 -48.87224744109918 0.45288642249228916 12.35543026905819 58.89579175731732 -17.969872679838897 0.0 -6.758678698109972e-15 0.0 -1.2892327246024065 -45.650254087231126 -15.03011789814944 -30.949405201821033 64.5167950282502 36.233239937573416 -1.5902773407317588e-15 5.963540027744095e-15 8.276074308844047e-32 -1.0546095406942872e-05 -0.00028085100565137844 -0.00014649924695095393 -177.472945922446 -1.4078841525918787e-06 1.0133745036557323e-06 11.721666751582557 -7.344455437504336 -7.367497269097478e-05 -89.99398617829046 -3.4656098670535345 -89.90770345580451 -172.24726547747568 -3.886466846314226e-06 1.962534675966439e-06 -6.3611093629270335e-15 3.1805546814635168e-15 1.7655625192200634e-31 175.32080437117983 -4.878155371259027 -143.49086765976602 45.00057662669699 3.981272443538519e-06 2.8263654862531723e-06 8.827812596100317e-32 6.361109362927033e-15 -1.5902773407317582e-15
-0.0805296003818512 0.0913076177239418 4.549628734588623 -141.01268454465028 53.8846019339532 139.9930763847435 -13.797973842186465 -59.2322571756799 -6.027405369327245 17.874026615876137 61.05415841490819 -25.773079761009306 -1.5902773407317592e-15 -6.361109362927035e-15 -3.1805546814635176e-15 -7.38467383870893 -63.660396772742565 -20.254753063945852 -29.962875817141768 67.40478839160511 31.012137519207975 -3.1805546814635176e-15 -6.758678698109974e-15 -3.1805546814635176e-15 9.01347748367284e-07 2.374112800702578e-06 -4.336743943842117e-06 -178.0439566555055 -2.9139749353162315e-06 7.890648910051457e-07 10.673340608009928 -7.696132808436378 -7.067558225489992e-06 -89.87560734267196 -4.203875674075996 -87.68756750175244 -172.1974187321789 1.671279776406521e-06 -4.77064034398774e-07 -4.895072439439944e-15 3.1805546814635168e-15 -1.3417965062424209e-15 176.8265245915117 -1.9284073540109845 -129.28963516285125 38.26248069276708 -5.2919453639456306e-06 6.870283239016725e-06 -6.3611093629270335e-15 1.3241718894150476e-31 -2.3854160110976376e-15
